<svg fill="none" height="96" viewBox="0 0 96 96" width="96" xmlns="http://www.w3.org/2000/svg" xmlns:xlink="http://www.w3.org/1999/xlink"><linearGradient id="a" gradientUnits="userSpaceOnUse" x1="-26.822" x2="32.072" y1="66.828" y2="135.068"><stop offset="0" stop-color="#c1eb4e"/><stop offset=".474" stop-color="#0fbab2"/><stop offset=".999" stop-color="#923cff"/></linearGradient><g clip-rule="evenodd" fill-rule="evenodd"><path d="m33.145 43.754 15.4 15.4 10.609-10.61-15.4-15.4 15.4-15.4-10.61-10.61-15.4 15.4-15.4-15.399-10.608 10.61 15.399 15.4-15.4 15.399 10.61 10.61zm15.4 16.814-15.4-15.4-15.4 15.4-12.023-12.024 15.399-15.4-15.4-15.4 12.025-12.022 15.4 15.4 15.4-15.4 12.023 12.024-15.4 15.4 15.4 15.399-12.023 12.024z" fill="#fff"/><path d="m90.66 48.544-11.317-11.317-30.799 30.8-15.4-15.4-11.316 11.317 26.716 26.716z" fill="url(#a)"/></g></svg>